<svg width="178" height="56" viewBox="0 0 178 56" fill="none" xmlns="http://www.w3.org/2000/svg">
<path fill-rule="evenodd" clip-rule="evenodd" d="M38.245 11.9C37.8767 11.9004 37.5236 12.0473 37.2625 12.3088C37.0015 12.5703 36.8538 12.9251 36.8516 13.2958V16.5585C36.8516 17.1367 37.3133 17.605 37.8925 17.605H68.4904C69.0654 17.605 69.5313 17.1381 69.5313 16.5585V12.9465C69.5313 12.3683 69.0696 11.9 68.4904 11.9H38.245ZM37.8925 20.3C37.3174 20.3 36.8516 20.7669 36.8516 21.3465V24.9585C36.8516 25.5367 37.3133 26.005 37.8925 26.005H68.4904C69.0654 26.005 69.5313 25.5381 69.5313 24.9585V21.3465C69.5313 20.7683 69.0696 20.3 68.4904 20.3H37.8925ZM37.8925 29.4C37.3174 29.4 36.8516 29.8669 36.8516 30.4465V34.0585C36.8516 34.6367 37.3133 35.105 37.8925 35.105H68.4904C69.0654 35.105 69.5313 34.6381 69.5313 34.0585V30.4465C69.5313 29.8683 69.0696 29.4 68.4904 29.4H37.8925ZM37.8925 38.5C37.3174 38.5 36.8516 38.9669 36.8516 39.5465V43.1585C36.8516 43.7367 37.3133 44.205 37.8925 44.205H68.4904C69.0654 44.205 69.5313 43.7381 69.5313 43.1585V39.5465C69.5313 38.9683 69.0696 38.5 68.4904 38.5H37.8925ZM28.5078 43.7521C28.5078 44.331 28.9716 44.8 29.5473 44.8H33.1351C33.7094 44.8 34.1746 44.3352 34.1746 43.7521V12.9479C34.1746 12.369 33.7108 11.9 33.1351 11.9H29.5473C28.973 11.9 28.5078 12.3648 28.5078 12.9479V43.7521ZM9.73438 43.7521C9.73438 44.331 10.1982 44.8 10.7739 44.8H14.3617C14.936 44.8 15.4012 44.3352 15.4012 43.7521V12.9479C15.4012 12.369 14.9374 11.9 14.3617 11.9H10.7739C10.1995 11.9 9.73438 12.3648 9.73438 12.9479V43.7521ZM5.6668 43.7521C5.6668 44.331 5.20303 44.8 4.62731 44.8H1.0395C0.902796 44.8003 0.767386 44.7734 0.641054 44.7208C0.514722 44.6682 0.399958 44.591 0.303359 44.4936C0.20676 44.3963 0.130231 44.2806 0.0781709 44.1534C0.0261111 44.0261 -0.000452564 43.8898 5.83306e-06 43.7521V12.9479C5.83306e-06 12.369 0.46378 11.9 1.0395 11.9H4.62731C5.20164 11.9 5.6668 12.3648 5.6668 12.9479V43.7521ZM18.7734 43.7521C18.7734 44.331 19.2372 44.8 19.8129 44.8H23.4007C23.9751 44.8 24.4402 44.3352 24.4402 43.7521V12.9479C24.4402 12.369 23.9765 11.9 23.4007 11.9H19.8129C19.2386 11.9 18.7734 12.3648 18.7734 12.9479V43.7521Z" fill="#09C303"/>
<path d="M94.2221 15C96.9334 15 99.3026 15.5688 101.33 16.7065C103.382 17.8188 104.957 19.3862 106.056 21.4087C107.155 23.4312 107.705 25.7444 107.705 28.3483C107.705 30.927 107.143 33.2275 106.02 35.25C104.921 37.2725 103.345 38.8652 101.293 40.0281C99.266 41.1657 96.9089 41.7345 94.2221 41.7345H84V15H94.2221ZM93.6725 35.1742C95.7731 35.1742 97.4219 34.5801 98.6187 33.3919C99.8156 32.2036 100.414 30.5225 100.414 28.3483C100.414 26.1489 99.8156 24.4551 98.6187 23.2669C97.4219 22.0534 95.7731 21.4466 93.6725 21.4466H91.1811V35.1742H93.6725Z" fill="#09C303"/>
<path d="M118.123 15V41.7345H110.942V15H118.123Z" fill="#09C303"/>
<path d="M138.553 37.3736H129.394L128.002 41.7345H120.454L129.87 15H138.15L147.53 41.7345H139.946L138.553 37.3736ZM136.758 31.6854L133.974 23.0393L131.226 31.6854H136.758Z" fill="#09C303"/>
<path d="M156.905 15V30.5098C156.905 31.9508 157.223 33.0632 157.858 33.8469C158.517 34.6306 159.506 35.0225 160.825 35.0225C162.144 35.0225 163.134 34.6306 163.793 33.8469C164.477 33.0379 164.819 31.9256 164.819 30.5098V15H172V30.5098C172 32.9621 171.499 35.0604 170.498 36.8048C169.496 38.5239 168.129 39.8258 166.394 40.7107C164.685 41.5702 162.779 42 160.679 42C158.578 42 156.697 41.5702 155.036 40.7107C153.4 39.8258 152.105 38.5239 151.153 36.8048C150.225 35.0857 149.76 32.9874 149.76 30.5098V15H156.905Z" fill="#09C303"/>
</svg>
